<svg width="23" height="22" viewBox="0 0 23 22" fill="none" xmlns="http://www.w3.org/2000/svg">
<g clip-path="url(#clip0_2_148)">
<g clip-path="url(#clip1_2_148)">
<path d="M11.0821 20.6855C10.7054 20.6913 10.3406 20.5533 10.0621 20.2995C9.92996 20.1697 9.82528 20.0146 9.75432 19.8435C9.68337 19.6724 9.64759 19.4887 9.64913 19.3035C9.64913 18.9285 9.79513 18.5825 10.0641 18.3255C10.4751 17.9285 15.1421 13.4685 16.5581 12.1155H2.08413C1.04913 12.1155 0.578125 11.3895 0.578125 10.7155C0.578125 10.0365 1.04913 9.30948 2.08413 9.30948H16.5561C15.1361 7.95648 10.5361 3.57348 10.0591 3.09648C9.76713 2.80548 9.61413 2.46148 9.61713 2.10048C9.62222 1.91626 9.66444 1.73495 9.74124 1.56742C9.81805 1.39989 9.92787 1.24958 10.0641 1.12548C10.5651 0.646485 11.4181 0.444485 12.1011 1.12848C12.6621 1.68848 21.8661 10.4625 21.9571 10.5515L22.1301 10.7145L21.9581 10.8765C21.8651 10.9665 12.5511 19.8615 12.0981 20.2985C11.8341 20.5565 11.4591 20.6855 11.0821 20.6855Z" fill="#5C1B05"/>
</g>
</g>
<defs>
<clipPath id="clip0_2_148">
<rect width="22" height="21" fill="white" transform="translate(0.578125 0.6875)"/>
</clipPath>
<clipPath id="clip1_2_148">
<rect width="22" height="21" fill="white" transform="translate(0.578125 0.6875)"/>
</clipPath>
</defs>
</svg>
