<svg width="23" height="22" viewBox="0 0 23 22" fill="none" xmlns="http://www.w3.org/2000/svg">
<g clip-path="url(#clip0_2_242)">
<g clip-path="url(#clip1_2_242)">
<path d="M11.4571 20.4356C11.0804 20.4414 10.7156 20.3034 10.4371 20.0496C10.305 19.9198 10.2003 19.7647 10.1293 19.5936C10.0584 19.4225 10.0226 19.2388 10.0241 19.0536C10.0241 18.6786 10.1701 18.3326 10.4391 18.0756C10.8501 17.6786 15.5171 13.2186 16.9331 11.8656H2.45913C1.42413 11.8656 0.953125 11.1396 0.953125 10.4656C0.953125 9.78658 1.42413 9.05958 2.45913 9.05958H16.9311C15.5111 7.70658 10.9111 3.32358 10.4341 2.84658C10.1421 2.55558 9.98913 2.21158 9.99213 1.85058C9.99722 1.66635 10.0394 1.48504 10.1162 1.31751C10.193 1.14998 10.3029 0.999672 10.4391 0.875576C10.9401 0.396576 11.7931 0.194576 12.4761 0.878576C13.0371 1.43858 22.2411 10.2126 22.3321 10.3016L22.5051 10.4646L22.3331 10.6266C22.2401 10.7166 12.9261 19.6116 12.4731 20.0486C12.2091 20.3066 11.8341 20.4356 11.4571 20.4356Z" fill="#191919"/>
</g>
</g>
<defs>
<clipPath id="clip0_2_242">
<rect width="22" height="21" fill="white" transform="translate(0.953125 0.437561)"/>
</clipPath>
<clipPath id="clip1_2_242">
<rect width="22" height="21" fill="white" transform="translate(0.953125 0.437561)"/>
</clipPath>
</defs>
</svg>
