<svg width="10" height="5" viewBox="0 0 10 5" fill="none" xmlns="http://www.w3.org/2000/svg">
<g clip-path="url(#clip0_2_58)">
<g clip-path="url(#clip1_2_58)">
<path d="M4.81255 5.00005C4.74674 5.00045 4.6815 4.98785 4.62058 4.96297C4.55965 4.93809 4.50425 4.90141 4.45755 4.85505L0.459546 0.857046C0.365394 0.762894 0.3125 0.635197 0.3125 0.502046C0.3125 0.368895 0.365394 0.241198 0.459546 0.147046C0.553698 0.052894 0.681395 0 0.814546 0C0.947697 0 1.07539 0.052894 1.16955 0.147046L4.81255 3.79555L8.45605 0.147046C8.5502 0.052894 8.67789 4.29757e-09 8.81105 5.28962e-09C8.9442 6.28167e-09 9.07189 0.052894 9.16605 0.147046C9.2602 0.241198 9.31309 0.368895 9.31309 0.502046C9.31309 0.635197 9.2602 0.762894 9.16605 0.857046L5.16755 4.85505C5.12084 4.90141 5.06544 4.93809 5.00451 4.96297C4.94359 4.98785 4.87835 5.00045 4.81255 5.00005Z" fill="black"/>
</g>
</g>
<defs>
<clipPath id="clip0_2_58">
<rect width="9" height="5" fill="white" transform="translate(0.3125)"/>
</clipPath>
<clipPath id="clip1_2_58">
<rect width="9" height="5" fill="white" transform="translate(0.3125)"/>
</clipPath>
</defs>
</svg>
