<svg width="17" height="17" viewBox="0 0 17 17" fill="none" xmlns="http://www.w3.org/2000/svg">
<g clip-path="url(#clip0_2_4980)">
<g clip-path="url(#clip1_2_4980)">
<path d="M8.5 0.234375C6.37827 0.234375 4.34344 1.07723 2.84315 2.57752C1.34285 4.07781 0.5 6.11264 0.5 8.23438C0.5 10.3561 1.34285 12.3909 2.84315 13.8912C4.34344 15.3915 6.37827 16.2344 8.5 16.2344C10.6217 16.2344 12.6566 15.3915 14.1569 13.8912C15.6571 12.3909 16.5 10.3561 16.5 8.23438C16.5 6.11264 15.6571 4.07781 14.1569 2.57752C12.6566 1.07723 10.6217 0.234375 8.5 0.234375ZM9.5 11.2344C9.5 11.4996 9.39464 11.7539 9.20711 11.9415C9.01957 12.129 8.76522 12.2344 8.5 12.2344C8.23478 12.2344 7.98043 12.129 7.79289 11.9415C7.60536 11.7539 7.5 11.4996 7.5 11.2344V8.23438C7.5 7.96916 7.60536 7.7148 7.79289 7.52727C7.98043 7.33973 8.23478 7.23438 8.5 7.23438C8.76522 7.23438 9.01957 7.33973 9.20711 7.52727C9.39464 7.7148 9.5 7.96916 9.5 8.23438V11.2344ZM8.5 6.23438C8.23478 6.23438 7.98043 6.12902 7.79289 5.94148C7.60536 5.75395 7.5 5.49959 7.5 5.23438C7.5 4.96916 7.60536 4.7148 7.79289 4.52727C7.98043 4.33973 8.23478 4.23438 8.5 4.23438C8.76522 4.23438 9.01957 4.33973 9.20711 4.52727C9.39464 4.7148 9.5 4.96916 9.5 5.23438C9.5 5.49959 9.39464 5.75395 9.20711 5.94148C9.01957 6.12902 8.76522 6.23438 8.5 6.23438Z" fill="white"/>
</g>
</g>
<defs>
<clipPath id="clip0_2_4980">
<rect width="16" height="16" fill="white" transform="translate(0.5 0.234375)"/>
</clipPath>
<clipPath id="clip1_2_4980">
<rect width="16" height="16" fill="white" transform="translate(0.5 0.234375)"/>
</clipPath>
</defs>
</svg>
